<svg width="20" height="20" viewBox="0 0 20 20" fill="none" xmlns="http://www.w3.org/2000/svg">
<path fill-rule="evenodd" clip-rule="evenodd" d="M10 20C15.5228 20 20 15.5228 20 10C20 4.47715 15.5228 0 10 0C4.47715 0 0 4.47715 0 10C0 15.5228 4.47715 20 10 20ZM6.19526 13.8047C5.93491 13.5444 5.93491 13.1223 6.19526 12.8619L9.05719 10L6.19526 7.13807C5.93491 6.87772 5.93491 6.45561 6.19526 6.19526C6.45561 5.93491 6.87772 5.93491 7.13807 6.19526L10 9.05719L12.8619 6.19526C13.1223 5.93491 13.5444 5.93491 13.8047 6.19526C14.0651 6.45561 14.0651 6.87772 13.8047 7.13807L10.9428 10L13.8047 12.8619C14.0651 13.1223 14.0651 13.5444 13.8047 13.8047C13.5444 14.0651 13.1223 14.0651 12.8619 13.8047L10 10.9428L7.13807 13.8047C6.87772 14.0651 6.45561 14.0651 6.19526 13.8047Z" fill="#B8C3E1"/>
</svg>
